<?xml version="1.0" standalone="no"?>
<!DOCTYPE svg PUBLIC "-//W3C//DTD SVG 20010904//EN"
 "http://www.w3.org/TR/2001/REC-SVG-20010904/DTD/svg10.dtd">
<svg version="1.0" xmlns="http://www.w3.org/2000/svg"
 width="256.000000pt" height="256.000000pt" viewBox="0 0 256.000000 256.000000"
 preserveAspectRatio="xMidYMid meet">
<metadata>
Created by potrace 1.11, written by Peter Selinger 2001-2013
</metadata>
<g transform="translate(0.000000,256.000000) scale(0.100000,-0.100000)"
fill="#000000" stroke="none">
<path d="M20 2540 c-20 -20 -20 -33 -20 -1260 0 -1227 0 -1240 20 -1260 20
-20 33 -20 1260 -20 1227 0 1240 0 1260 20 20 20 20 33 20 1260 0 1227 0 1240
-20 1260 -20 20 -33 20 -1260 20 -1227 0 -1240 0 -1260 -20z m1381 -196 c113
-33 208 -118 262 -232 25 -54 32 -83 35 -153 7 -144 -36 -251 -139 -343 l-48
-44 59 -11 c43 -9 60 -16 60 -28 0 -13 -8 -15 -50 -10 -27 3 -50 3 -50 -1 1
-4 61 -95 134 -202 l133 -195 95 4 c152 5 255 -35 348 -135 67 -73 103 -162
108 -265 9 -187 -78 -333 -246 -412 -124 -58 -290 -48 -404 24 -89 57 -160
154 -188 258 l-11 44 -43 -42 c-66 -65 -108 -50 -44 16 l32 33 -190 0 -191 0
-17 -63 c-33 -119 -116 -215 -234 -270 -54 -25 -83 -32 -153 -35 -187 -9 -333
78 -412 246 -25 54 -32 83 -35 153 -9 187 78 333 246 412 63 30 73 32 184 32
100 0 117 2 113 15 -21 76 -25 104 -17 112 17 17 32 -1 38 -43 4 -21 9 -39 13
-39 6 0 242 370 249 391 2 5 -21 32 -52 60 -39 35 -67 74 -93 126 -32 65 -37
86 -41 162 -10 210 104 374 303 437 56 18 181 17 246 -2z"/>
<path d="M1210 2300 c-235 -40 -372 -306 -270 -523 50 -105 155 -185 275 -206
198 -36 388 100 424 304 36 198 -100 387 -303 424 -65 12 -61 12 -126 1z m270
-164 c57 -20 65 -26 68 -51 4 -33 -56 -104 -70 -82 -4 7 -8 -3 -8 -26 0 -35
-9 -47 -100 -137 -54 -55 -106 -100 -115 -100 -25 0 -17 32 18 70 17 20 4 7
-29 -28 -43 -45 -67 -63 -78 -59 -28 11 -17 40 36 94 29 29 48 53 42 53 -12 0
-85 -76 -108 -113 -13 -22 -24 -27 -44 -25 -46 5 -39 35 25 102 52 55 51 54
-11 -7 -71 -70 -98 -80 -104 -38 -3 19 22 50 125 155 70 72 110 114 87 93 -27
-25 -46 -36 -57 -31 -28 10 -19 38 26 82 42 41 44 42 114 42 50 0 74 4 83 15
16 19 22 19 100 -9z"/>
<path d="M1053 1507 c-14 -23 -71 -113 -126 -200 -55 -87 -97 -160 -95 -162 2
-3 21 0 42 6 26 7 42 7 48 1 15 -15 2 -30 -35 -37 -72 -15 -72 -15 -20 -50
107 -72 181 -192 191 -311 l5 -64 190 0 191 0 -32 33 c-65 67 -22 81 45 15
l43 -42 0 40 c0 129 98 282 219 343 23 12 41 24 41 27 0 14 -263 393 -270 389
-4 -2 -10 -23 -14 -45 -4 -28 -11 -40 -22 -40 -14 0 -16 8 -10 54 3 30 8 61
12 69 4 12 -4 11 -48 -4 -71 -25 -188 -25 -268 0 l-61 19 -26 -41z"/>
<path d="M570 1070 c-235 -40 -372 -306 -270 -523 50 -105 155 -185 275 -206
198 -36 388 100 424 304 36 198 -100 387 -303 424 -65 12 -61 12 -126 1z m278
-192 c53 -53 62 -68 62 -98 0 -29 -8 -44 -40 -75 -34 -33 -42 -37 -50 -25 -7
11 -10 3 -10 -28 0 -41 -5 -48 -85 -129 l-85 -85 -95 32 c-58 19 -95 37 -95
45 0 11 17 8 72 -11 39 -13 73 -22 75 -20 3 2 -34 17 -81 32 -74 24 -86 31
-86 50 l0 23 85 -29 c47 -16 83 -26 81 -22 -3 4 -45 21 -95 37 -86 27 -91 30
-91 56 l0 28 87 -30 c48 -16 92 -28 98 -26 5 2 -37 19 -95 39 -105 34 -105 35
-108 69 -2 27 3 40 27 63 l30 28 47 -16 c26 -9 52 -16 58 -16 16 1 -86 40
-103 40 -24 0 -71 -52 -71 -77 0 -13 -4 -23 -10 -23 -27 0 -6 49 42 97 l52 53
111 0 c62 0 104 4 97 9 -10 6 -4 16 23 39 55 49 80 44 153 -30z"/>
<path d="M600 776 c0 -19 -8 -44 -18 -56 -18 -23 -19 -23 -71 -5 -29 9 -54 15
-57 13 -2 -3 22 -12 53 -22 l57 -18 23 26 c20 24 34 96 18 96 -3 0 -5 -15 -5
-34z"/>
<path d="M1860 1070 c-235 -40 -372 -306 -270 -523 50 -105 155 -185 275 -206
198 -36 388 100 424 304 36 198 -100 387 -303 424 -65 12 -61 12 -126 1z m292
-177 c62 -61 66 -102 14 -152 -24 -23 -35 -29 -39 -19 -3 7 -6 -3 -6 -22 -1
-30 -12 -46 -75 -109 l-75 -74 -45 13 c-25 7 -46 16 -46 20 0 15 13 18 37 9
16 -6 22 -6 18 1 -3 6 -13 10 -22 10 -13 0 -12 5 7 28 14 15 -14 -10 -60 -55
-69 -67 -89 -81 -107 -77 -42 11 -27 45 59 131 45 45 79 86 75 90 -4 4 -50 -7
-102 -24 -108 -36 -135 -34 -135 7 0 28 4 30 130 72 111 36 130 45 129 63 -1
15 -2 16 -6 3 -2 -9 -25 -24 -50 -32 -57 -19 -53 -20 -53 1 0 9 17 34 37 55
36 37 40 38 108 39 38 0 64 3 57 6 -10 4 -6 13 14 34 42 44 78 39 136 -18z
m-303 -248 c-39 -41 -49 -43 -49 -11 0 17 8 27 28 34 49 18 54 13 21 -23z"/>
</g>
</svg>
